G04 #@! TF.GenerationSoftware,KiCad,Pcbnew,5.99.0-unknown*
G04 #@! TF.CreationDate,2020-01-25T03:15:45+11:00*
G04 #@! TF.ProjectId,backup12,6261636b-7570-4313-922e-6b696361645f,1.0*
G04 #@! TF.SameCoordinates,Original*
G04 #@! TF.FileFunction,Profile,NP*
%FSLAX46Y46*%
G04 Gerber Fmt 4.6, Leading zero omitted, Abs format (unit mm)*
G04 Created by KiCad (PCBNEW 5.99.0-unknown) date 2020-01-25 03:15:45*
%MOMM*%
%LPD*%
G04 APERTURE LIST*
%ADD10C,0.050000*%
G04 APERTURE END LIST*
D10*
X157253000Y-103632000D02*
X157253000Y-67310000D01*
X38889000Y-16002000D02*
X40159000Y-16002000D01*
X38889000Y-24892000D02*
X38889000Y-16002000D01*
X38889000Y-36830000D02*
X38889000Y-24892000D01*
X38889000Y-48260000D02*
X38889000Y-36830000D01*
X38889000Y-61976000D02*
X38889000Y-48260000D01*
X38889000Y-74930000D02*
X38889000Y-61976000D01*
X38889000Y-87884000D02*
X38889000Y-74930000D01*
X38889000Y-99060000D02*
X38889000Y-87884000D01*
X38889000Y-103632000D02*
X40159000Y-103632000D01*
X38889000Y-99060000D02*
X38889000Y-103632000D01*
X40159000Y-103632000D02*
X41937000Y-103632000D01*
X41937000Y-16002000D02*
X40159000Y-16002000D01*
X44985000Y-20574000D02*
G75*
G03X44985000Y-20574000I-1524000J0D01*
G01*
X41937000Y-16002000D02*
X46255000Y-16002000D01*
X41937000Y-103632000D02*
X46255000Y-103632000D01*
X44985000Y-99060000D02*
G75*
G03X44985000Y-99060000I-1524000J0D01*
G01*
X121947000Y-98044000D02*
G75*
G03X121947000Y-98044000I-1524000J0D01*
G01*
X133631000Y-75946000D02*
G75*
G03X133631000Y-75946000I-1524000J0D01*
G01*
X154205000Y-66548000D02*
G75*
G03X154205000Y-66548000I-1524000J0D01*
G01*
X154205000Y-20574000D02*
G75*
G03X154205000Y-20574000I-1524000J0D01*
G01*
X157253000Y-16002000D02*
X145823000Y-16002000D01*
X157253000Y-30988000D02*
X157253000Y-16002000D01*
X157253000Y-67310000D02*
X157253000Y-30988000D01*
X117883000Y-16002000D02*
X145823000Y-16002000D01*
X68353000Y-16002000D02*
X117883000Y-16002000D01*
X46255000Y-16002000D02*
X68353000Y-16002000D01*
X47779000Y-103632000D02*
X48033000Y-103632000D01*
X47779000Y-103632000D02*
X46255000Y-103632000D01*
X157253000Y-103632000D02*
X48033000Y-103632000D01*
M02*
