M48
; DRILL file {KiCad 5.99.0-unknown} date Sat Jan 25 03:16:00 2020
; FORMAT={-:-/ absolute / metric / decimal}
; #@! TF.CreationDate,2020-01-25T03:16:00+11:00
; #@! TF.GenerationSoftware,Kicad,Pcbnew,5.99.0-unknown
; #@! TF.FileFunction,Plated,1,2,PTH
FMAT,2
METRIC
T1C0.400
T2C0.600
T3C0.800
T4C0.900
T5C1.000
T6C1.199
T7C3.200
%
G90
G05
T1
X60.225Y-21.336
X60.225Y-33.02
X60.225Y-44.704
X60.225Y-56.388
X60.225Y-68.072
X60.225Y-79.756
X60.225Y-91.44
X102.389Y-87.63
X108.485Y-83.566
X108.739Y-72.39
X109.755Y-71.628
X116.359Y-42.926
X120.677Y-81.026
X122.709Y-83.566
X123.471Y-84.582
X128.297Y-90.932
X128.497Y-18.823
X128.551Y-45.466
X128.551Y-55.626
X129.821Y-95.758
X133.377Y-44.196
X138.711Y-53.34
X138.711Y-55.372
X140.235Y-23.876
X140.235Y-46.736
X145.288Y-89.408
X145.288Y-90.932
X147.32Y-90.932
T2
X110.803Y-75.184
X112.803Y-75.184
X118.931Y-75.184
X120.931Y-75.184
X110.803Y-83.566
X112.803Y-83.566
T3
X62.511Y-89.662
X62.511Y-97.282
X81.561Y-54.61
X81.561Y-62.23
X136.425Y-20.066
X136.425Y-22.606
X136.425Y-25.146
X136.425Y-27.686
X136.425Y-30.226
X136.425Y-32.766
X136.425Y-35.306
X136.425Y-37.846
X144.045Y-20.066
X144.045Y-22.606
X144.045Y-25.146
X144.045Y-27.686
X144.045Y-30.226
X144.045Y-32.766
X144.045Y-35.306
X144.045Y-37.846
X100.865Y-19.558
X100.865Y-27.178
X100.865Y-54.61
X100.865Y-62.23
X81.561Y-89.662
X81.561Y-97.282
X62.511Y-31.242
X62.511Y-38.862
X62.511Y-66.294
X62.511Y-73.914
X81.561Y-31.242
X81.561Y-38.862
X110.517Y-20.066
X110.517Y-22.606
X110.517Y-25.146
X110.517Y-27.686
X110.517Y-30.226
X110.517Y-32.766
X110.517Y-35.306
X110.517Y-37.846
X110.517Y-40.386
X110.517Y-42.926
X110.517Y-45.466
X110.517Y-48.006
X110.517Y-50.546
X110.517Y-53.086
X110.517Y-55.626
X110.517Y-58.166
X110.517Y-60.706
X110.517Y-63.246
X110.517Y-65.786
X110.517Y-68.326
X125.757Y-20.066
X125.757Y-22.606
X125.757Y-25.146
X125.757Y-27.686
X125.757Y-30.226
X125.757Y-32.766
X125.757Y-35.306
X125.757Y-37.846
X125.757Y-40.386
X125.757Y-42.926
X125.757Y-45.466
X125.757Y-48.006
X125.757Y-50.546
X125.757Y-53.086
X125.757Y-55.626
X125.757Y-58.166
X125.757Y-60.706
X125.757Y-63.246
X125.757Y-65.786
X125.757Y-68.326
X81.561Y-42.926
X81.561Y-50.546
X136.425Y-42.926
X136.425Y-45.466
X136.425Y-48.006
X136.425Y-50.546
X136.425Y-53.086
X136.425Y-55.626
X136.425Y-58.166
X136.425Y-60.706
X144.045Y-42.926
X144.045Y-45.466
X144.045Y-48.006
X144.045Y-50.546
X144.045Y-53.086
X144.045Y-55.626
X144.045Y-58.166
X144.045Y-60.706
X81.561Y-77.978
X81.561Y-85.598
X100.865Y-42.926
X100.865Y-50.546
X100.865Y-77.978
X100.865Y-85.598
X62.511Y-19.558
X62.511Y-27.178
X62.511Y-54.61
X62.511Y-62.23
X81.561Y-19.558
X81.561Y-27.178
X126.011Y-81.788
X126.011Y-84.328
X126.011Y-86.868
X126.011Y-89.408
X126.011Y-91.948
X126.011Y-94.488
X126.011Y-97.028
X126.011Y-99.568
X133.631Y-81.788
X133.631Y-84.328
X133.631Y-86.868
X133.631Y-89.408
X133.631Y-91.948
X133.631Y-94.488
X133.631Y-97.028
X133.631Y-99.568
X81.561Y-66.294
X81.561Y-73.914
X100.865Y-31.242
X100.865Y-38.862
X100.865Y-66.294
X100.865Y-73.914
X100.865Y-89.662
X100.865Y-97.282
X62.511Y-42.926
X62.511Y-50.546
X62.511Y-77.978
X62.511Y-85.598
T4
X57.431Y-24.638
X57.431Y-27.178
X76.481Y-94.742
X76.481Y-97.282
X57.431Y-59.69
X57.431Y-62.23
X95.531Y-48.006
X95.531Y-50.546
X95.531Y-83.058
X95.531Y-85.598
X76.481Y-48.006
X76.481Y-50.546
X76.481Y-83.058
X76.481Y-85.598
X57.431Y-94.742
X57.431Y-97.282
X57.431Y-48.006
X57.431Y-50.546
X57.431Y-83.058
X57.431Y-85.598
X95.531Y-36.322
X95.531Y-38.862
X95.531Y-71.374
X95.531Y-73.914
X76.481Y-36.322
X76.481Y-38.862
X76.481Y-71.374
X76.481Y-73.914
X95.531Y-94.742
X95.531Y-97.282
X57.431Y-36.322
X57.431Y-38.862
X57.431Y-71.374
X57.431Y-73.914
X95.531Y-24.638
X95.531Y-27.178
X95.531Y-59.69
X95.531Y-62.23
X76.481Y-24.638
X76.481Y-27.178
X76.481Y-59.69
X76.481Y-62.23
T5
X139.497Y-79.55
X139.497Y-82.32
X139.497Y-85.09
X139.497Y-87.86
X139.497Y-90.63
X142.337Y-80.935
X142.337Y-83.705
X142.337Y-86.475
X142.337Y-89.245
T6
X105.317Y-99.38
X115.317Y-99.38
T7
X140.917Y-72.59
X140.917Y-97.59
T0
M30
